<svg xmlns="http://www.w3.org/2000/svg" viewBox="0 0 256 256" role="img" aria-label="Luma logo"><path fill="#fff" fill-rule="evenodd" d="M118,48 109,53 99,63 91,77 86,93 84,112 88,154 56,191 51,201 51,212 53,216 61,222 75,223 85,220 119,201 129,198 145,198 174,207 188,207 189,208 183,213 176,216 156,217 143,213 126,204 122,204 121,207 136,216 157,223 172,223 182,220 193,213 199,207 204,199 203,195 200,195 194,199 187,201 175,201 145,192 129,192 118,195 81,215 79,214 86,206 92,192 95,176 94,156 102,146 118,121 129,96 134,78 135,62 132,53 126,48Z M188,207 189,206 190,207 189,208Z M88,163 89,164 89,179 83,200 79,206 70,214 60,215 56,208 58,199 67,186Z M123,53 128,57 129,60 129,74 126,87 120,104 111,122 94,146 92,141 90,123 90,105 93,88 104,66 116,55Z"/></svg>
